<svg xmlns="http://www.w3.org/2000/svg" viewBox="0 0 192 192" width="192" height="192">
  <rect width="192" height="192" fill="#020802"/>
  <!-- Outer radar ring -->
  <circle cx="96" cy="96" r="72" fill="none" stroke="#00FF41" stroke-width="2" opacity="0.25"/>
  <!-- Mid radar ring -->
  <circle cx="96" cy="96" r="48" fill="none" stroke="#00FF41" stroke-width="1.5" opacity="0.35"/>
  <!-- Inner ring -->
  <circle cx="96" cy="96" r="24" fill="none" stroke="#00FF41" stroke-width="1.5" opacity="0.5"/>
  <!-- Center dot -->
  <circle cx="96" cy="96" r="6" fill="#00FF41"/>
  <!-- Crosshair lines -->
  <line x1="96" y1="16" x2="96" y2="44" stroke="#00FF41" stroke-width="2" opacity="0.5"/>
  <line x1="96" y1="148" x2="96" y2="176" stroke="#00FF41" stroke-width="2" opacity="0.5"/>
  <line x1="16" y1="96" x2="44" y2="96" stroke="#00FF41" stroke-width="2" opacity="0.5"/>
  <line x1="148" y1="96" x2="176" y2="96" stroke="#00FF41" stroke-width="2" opacity="0.5"/>
  <!-- Corner brackets -->
  <path d="M24,24 L24,44 M24,24 L44,24" fill="none" stroke="#00FF41" stroke-width="2" opacity="0.4"/>
  <path d="M168,24 L168,44 M168,24 L148,24" fill="none" stroke="#00FF41" stroke-width="2" opacity="0.4"/>
  <path d="M24,168 L24,148 M24,168 L44,168" fill="none" stroke="#00FF41" stroke-width="2" opacity="0.4"/>
  <path d="M168,168 L168,148 M168,168 L148,168" fill="none" stroke="#00FF41" stroke-width="2" opacity="0.4"/>
  <!-- "SP" text -->
  <text x="96" y="104" text-anchor="middle" font-family="monospace" font-size="24" font-weight="bold" fill="#00FF41" opacity="0.8">SP</text>
</svg>
